# xmcd
#
# Track frame offsets:
#	150
#	18705
#	34545
#	54753
#	68088
#	83961
#	99131
#	111464
#	122957
#	136417
#	152422
#
# Disc length: 2398 seconds
#
# Revision: 1
# Processed by: cddbd v1.5.1PL0 Copyright (c) Steve Scherf et al.
# Submitted via: audiograbber 1.83.01
#
DISCID=87095c0b
DTITLE=Dan Stevens - Broke Down and Hungry
DYEAR=2001
DGENRE=Acoustic
TTITLE0=Drivin Fool
TTITLE1=Open Road
TTITLE2=Broke Down and Hungry
TTITLE3=Shake Your Lovin', Mama
TTITLE4=Jelly
TTITLE5=Ramblin'
TTITLE6=Keep Your Hands Off Her
TTITLE7='Til That Day
TTITLE8=Long Tall Mama
TTITLE9=Can't Make Me Blue
TTITLE10=Light of This World - Angels Watchin' Over Me
EXTD=
EXTT0=
EXTT1=
EXTT2=
EXTT3=
EXTT4=
EXTT5=
EXTT6=
EXTT7=
EXTT8=
EXTT9=
EXTT10=
PLAYORDER=
